<?xml version="1.0" encoding="UTF-8" standalone="no"?>
<!-- Created with Inkscape (http://www.inkscape.org/) -->

<svg
   xmlns:dc="http://purl.org/dc/elements/1.1/"
   xmlns:cc="http://creativecommons.org/ns#"
   xmlns:rdf="http://www.w3.org/1999/02/22-rdf-syntax-ns#"
   xmlns:svg="http://www.w3.org/2000/svg"
   xmlns="http://www.w3.org/2000/svg"
   xmlns:sodipodi="http://sodipodi.sourceforge.net/DTD/sodipodi-0.dtd"
   xmlns:inkscape="http://www.inkscape.org/namespaces/inkscape"
   width="160.34204mm"
   height="157.64442mm"
   viewBox="0 0 160.34204 157.64442"
   version="1.1"
   id="svg34"
   sodipodi:docname="deer and wt.svg"
   inkscape:version="0.92.4 5da689c313, 2019-01-14">
  <defs
     id="defs28" />
  <sodipodi:namedview
     id="base"
     pagecolor="#ffffff"
     bordercolor="#666666"
     borderopacity="1.0"
     inkscape:pageopacity="0.0"
     inkscape:pageshadow="2"
     inkscape:zoom="1.4"
     inkscape:cx="566.24625"
     inkscape:cy="158.79385"
     inkscape:document-units="mm"
     inkscape:current-layer="layer1"
     showgrid="false"
     inkscape:window-width="1920"
     inkscape:window-height="1016"
     inkscape:window-x="0"
     inkscape:window-y="27"
     inkscape:window-maximized="1" />
  <metadata
     id="metadata31">
    <rdf:RDF>
      <cc:Work
         rdf:about="">
        <dc:format>image/svg+xml</dc:format>
        <dc:type
           rdf:resource="http://purl.org/dc/dcmitype/StillImage" />
        <dc:title></dc:title>
      </cc:Work>
    </rdf:RDF>
  </metadata>
  <g
     inkscape:label="Layer 1"
     inkscape:groupmode="layer"
     id="layer1"
     transform="translate(-2.3459241,-26.257302)">
    <g
       id="g20"
       transform="matrix(0.26458333,0,0,0.26458333,94.384497,97.799843)"
       inkscape:export-xdpi="96"
       inkscape:export-ydpi="96" />
    <g
       id="g4715"
       transform="matrix(0.80664707,-0.02050943,0.02282118,0.89757025,28.650987,19.913832)"
       inkscape:export-xdpi="96"
       inkscape:export-ydpi="96">
      <path
         inkscape:connector-curvature="0"
         style="fill:#000000;fill-opacity:1;stroke-width:0.22235166"
         d="m 148.18516,87.438631 -1.50873,3.589079 -8.76887,-2.739324 1.50874,-3.589079 c 0.91658,-2.180431 3.62531,-3.336383 6.04605,-2.580162 2.42074,0.756221 3.63939,3.139056 2.72281,5.319486 z"
         id="path22" />
      <polygon
         transform="matrix(0.22026768,0.06880991,-0.08340149,0.19840138,98.388452,60.455506)"
         style="fill:#000000;fill-opacity:1"
         points="245.35,164.17 205.54,164.17 205.54,133.16 205.54,69 245.35,69 245.35,133.16 "
         id="polygon24" />
      <path
         id="path30"
         transform="matrix(0.26458333,0,0,0.26458333,2.3459241,26.257302)"
         d="m 470.85742,302.81836 c -5.94697,-0.17131 -11.68964,3.09265 -13.91015,8.375 l -13.75977,32.73047 -61.57031,146.4707 -4.82227,11.47461 c -1.02321,2.43406 -1.15424,4.95055 -0.54101,7.26563 0.21854,-0.38929 0.44661,-0.77296 0.66211,-1.16407 0.0597,0.22273 0.15009,0.4441 0.26953,0.66407 -0.25758,0.40552 -0.47421,0.79269 -0.71094,1.1875 1.19852,3.57423 4.19047,6.58342 8.4375,7.91015 l 122.01172,38.11524 c 7.21784,2.25479 15.29517,-1.18652 18.03125,-7.69532 l 80.1543,-190.67578 c 2.73293,-6.50131 -0.91303,-13.60263 -8.13086,-15.85742 l -61.8711,-19.32812 -19.60547,-6.125 -33.14257,-10.35352 -7.39258,-2.30859 c -1.35335,-0.42278 -2.737,-0.64602 -4.10938,-0.68555 z m 54.58594,24.38281 c 2.19813,0.32153 4.40476,0.57117 6.61719,0.75977 -0.26,0.0363 -0.58555,0.0871 -0.83008,0.12109 -1.10805,0.15012 -2.21925,0.27825 -3.32813,0.42188 l -3.9375,-1.23047 c 0.4794,-0.0234 0.97384,-0.0458 1.47852,-0.0723 z m -47.38086,3.26172 48.68555,15.20899 29.52929,9.2246 18.28907,5.71485 -18.82032,44.77344 -37.37109,-11.67383 -29.5293,-9.22461 -29.60547,-9.24805 z m -25.50586,2.04297 c -0.15213,0.12616 -0.30484,0.25506 -0.46094,0.38281 -1.33629,0.0994 -2.67313,0.18979 -4.00976,0.28125 0.0823,-0.0367 0.56572,-0.25636 0.60351,-0.27148 1.24653,-0.13368 2.58744,-0.2603 3.86719,-0.39258 z m 8.8457,107.30469 c 0.6556,0.0189 1.31633,0.1263 1.96289,0.32812 l 40.93946,12.78906 c 3.44825,1.07721 5.18454,4.46828 3.8789,7.57422 -1.30563,3.10594 -5.15917,4.75103 -8.60742,3.67383 l -40.93945,-12.78906 c -3.44825,-1.0772 -5.1865,-4.46828 -3.88086,-7.57422 1.06084,-2.52355 3.80553,-4.08397 6.64648,-4.00195 z m -19.44531,17.40039 c 0.65564,0.0189 1.31637,0.1263 1.96289,0.32812 l 62.38477,19.48828 c 3.44825,1.07724 5.1845,4.46828 3.8789,7.57422 -1.30563,3.10594 -5.1592,4.75103 -8.60742,3.67383 l -62.38476,-19.48828 c -3.44826,-1.0772 -5.18455,-4.46828 -3.87891,-7.57422 1.06084,-2.52355 3.80357,-4.08397 6.64453,-4.00195 z m 1.99805,24.10156 c 0.65559,0.0189 1.31832,0.12435 1.96484,0.32617 l 40.9375,12.78906 c 3.44825,1.07721 5.1865,4.47024 3.88086,7.57618 -1.30564,3.10594 -5.15917,4.74907 -8.60742,3.67187 l -40.93945,-12.78906 c -3.44826,-1.0772 -5.1865,-4.46828 -3.88086,-7.57422 1.06083,-2.52359 3.80353,-4.08202 6.64453,-4 z m -55.21289,6.45508 c 0.0658,0.12132 0.1332,0.24025 0.20312,0.35742 -0.16444,0.31623 -0.32431,0.63287 -0.49023,0.94922 -0.13361,-0.0786 -0.26061,-0.15185 -0.37891,-0.21875 0.22092,-0.36314 0.44907,-0.72241 0.66602,-1.08789 z"
         style="fill:#000000;fill-opacity:1;stroke-width:0.84038419"
         inkscape:connector-curvature="0" />
    </g>
    <path
       style="fill:none;stroke:#000000;stroke-width:0.26458332px;stroke-linecap:butt;stroke-linejoin:miter;stroke-opacity:1"
       d="m 52.255208,127.0997 c 0.158369,-0.79798 0.591023,-1.389 1.039434,-2.07887 0.147669,-0.22718 0.303204,-0.44988 0.472472,-0.66146 0.08348,-0.10435 0.2033,-0.17657 0.283479,-0.28348 0.01889,-0.0252 -0.03088,-0.0883 0,-0.0945 0.154432,-0.0309 0.314982,0 0.472472,0 0.063,0 0.127873,-0.0153 0.188987,0 0.06833,0.0171 0.121266,0.0751 0.188989,0.0945 0.154429,0.0441 0.320103,0.0437 0.472469,0.0945 0.11117,0.0371 0.557773,0.27428 0.661458,0.37797 0.04981,0.0498 0.05224,0.13264 0.0945,0.18899 0.05345,0.0713 0.149146,0.1093 0.188987,0.18899 0.02817,0.0563 0,0.12599 0,0.18899 0,0.0945 0.01553,0.19027 0,0.28348 -0.02135,0.1281 -0.07613,0.24941 -0.09449,0.37797 -0.01336,0.0935 0,0.18899 0,0.28349 0,0.18898 0,0.37797 0,0.56696 0,0.0791 -0.01797,0.40061 0,0.47247 0.01709,0.0683 0.08068,0.11992 0.09449,0.18899 0.01852,0.0927 -0.02988,0.19384 0,0.28348 0.01,0.0299 0.0945,-0.0315 0.0945,0 0,0.13904 -0.313399,-0.2189 0,0.0945"
       id="path56"
       inkscape:connector-curvature="0"
       inkscape:export-xdpi="96"
       inkscape:export-ydpi="96" />
    <path
       style="fill:none;stroke:#000000;stroke-width:0.26458332px;stroke-linecap:butt;stroke-linejoin:miter;stroke-opacity:1"
       d="m 57.168898,125.87128 c 0,-0.44098 0,-0.88195 0,-1.32292 0,-0.18899 0,-0.37797 0,-0.56696 0,-0.0945 -0.01336,-0.18994 0,-0.28349 0.01836,-0.12856 0.06903,-0.25062 0.09449,-0.37797 0.01558,-0.078 -0.02318,-0.33164 0,-0.37798 0.04331,-0.0866 0.357454,-0.26706 0.377976,-0.28348 0.06957,-0.0556 0.11486,-0.13957 0.188989,-0.18899 0.02622,-0.0175 0.07222,0.0223 0.09449,0 0.02228,-0.0223 -0.02228,-0.0722 0,-0.0945 0.02228,-0.0223 0.063,0 0.09449,0 0.07334,0 0.543769,-0.0155 0.566965,0 0.07413,0.0494 0.114861,0.13957 0.18899,0.18899 0.05241,0.0349 0.132641,-0.0282 0.188986,0 0.03984,0.0199 0.063,0.063 0.0945,0.0945 0.063,0 0.129223,-0.0199 0.188987,0 0.04226,0.0141 0.05465,0.0746 0.09449,0.0945 0.05635,0.0282 0.129225,-0.0199 0.188989,0 0.063,0.0315 0.125992,0.063 0.188989,0.0945 0,0.0315 -0.02228,0.0722 0,0.0945 0.0498,0.0498 0.128593,0.0583 0.188987,0.0945 0.09739,0.0584 0.1861,0.13055 0.283483,0.18898 0.12079,0.0725 0.265284,0.10448 0.377975,0.18899 0.07127,0.0535 0.125992,0.126 0.18899,0.18899 0.09449,0.0945 0.188986,0.18899 0.283482,0.28348 0.0315,0.0315 0.063,0.063 0.09449,0.0945 0.0315,0.0315 0.07457,0.0547 0.09449,0.0945 0.01408,0.0282 0,0.063 0,0.0945 0,0.063 -0.01527,0.12787 0,0.18898 0.01709,0.0683 0.07222,0.12217 0.09449,0.18899 0.01992,0.0598 0,0.12599 0,0.18899 0,0.0315 0.0315,0.0945 0,0.0945 -0.0315,0 0,-0.12599 0,-0.0945 0,0.063 -0.01992,0.12922 0,0.18899 0.01408,0.0423 0.07457,0.0547 0.0945,0.0945 0.01408,0.0282 0,0.063 0,0.0945 0,0.0315 0,0.063 0,0.0945"
       id="path874"
       inkscape:connector-curvature="0"
       inkscape:export-xdpi="96"
       inkscape:export-ydpi="96" />
    <path
       style="stroke-width:1.63510704"
       d="M 363.60742 0.005859375 C 363.39197 -0.0044570881 363.18188 -8.8985973e-05 362.98047 0.01953125 C 361.0469 0.20786511 359.84257 1.8619578 360.9375 6.6796875 C 360.9375 6.6796875 360.70169 6.6427916 360.67188 6.6386719 C 364.0957 20.492379 367.52246 34.345427 370.93359 48.203125 C 376.31307 70.178965 378.58527 92.286872 364.39258 111.77734 C 360.43562 117.18955 352.01518 120.17872 345.0332 122.0918 C 343.54526 122.50058 339.0335 113.50884 336.69531 108.60352 C 334.63505 104.20508 333.7838 99.268701 332.23047 94.625 C 322.81225 66.468453 309.68145 40.30784 290.28906 17.628906 C 288.31063 15.307052 283.27614 10.513917 280.26758 9.8925781 C 278.6161 9.4837995 276.22974 10.417084 277.39062 13.164062 A 58.716698 58.716698 0 0 0 280.9375 20.732422 C 297.92626 48.970724 307.22823 80.021155 314.27539 111.87305 C 315.43637 117.26892 316.68016 123.30376 315.4375 128.4707 C 313.99857 134.4552 311.18622 141.43695 306.64062 145.09961 A 206.13796 206.13796 0 0 1 275.08398 165.49023 C 258.96183 174.18897 256.13165 172.57152 252.41992 154.42188 C 249.49309 140.03288 247.20377 125.51031 243.93359 111.20312 C 243.37766 108.76696 238.94613 99.923382 235.9375 101.29688 C 232.92892 102.67036 234.69712 108.93273 234.87695 111.10742 C 237.32958 140.03245 240.3375 168.92116 241.97266 197.87891 C 242.75738 210.99248 233.99409 215.62172 221.37109 212.79297 A 69.720955 69.720955 0 0 0 193.57227 211.87695 C 174.52327 215.55593 149.72096 195.29748 154.20117 176.15039 C 161.412 145.2632 156.81657 114.75078 155.36133 84.076172 C 155.23052 81.509053 155.19662 76.424319 152.48242 75.181641 C 146.10549 72.254797 147.47914 86.413376 147.20117 89.683594 C 146.56348 97.106979 145.9247 104.46819 145.02539 111.82617 C 143.25947 126.34592 141.69141 140.94572 138.56836 155.1875 C 136.32826 165.37425 127.67851 170.0523 117.7207 169.00586 C 106.66738 167.82858 96.38288 163.72367 92.115234 151.86914 C 87.144528 138.11787 82.629155 124.10427 77.609375 110.32031 C 76.252234 106.60862 73.735065 103.32262 71.740234 99.839844 L 68.683594 101.11328 L 77.136719 153.16016 C 56.240047 143.54573 38.400721 132.45992 25.417969 115.37305 A 71.127151 71.127151 0 0 1 13.613281 91.171875 C 13.016984 88.926628 12.674944 86.729883 12.572266 84.583984 C 11.91985 84.035159 11.432044 83.339418 11.148438 82.466797 C 5.7803866 65.949729 -1.1842379e-15 79.992188 0 79.992188 C 0 79.992188 0.82584105 105.21297 12.134766 139.89453 C 24.013874 153.47429 38.934163 163.74655 55.912109 171.58594 C 62.910366 174.80712 65.284323 177.4575 63.763672 186.15625 C 57.664724 221.21296 65.217589 252.73643 91.150391 278.81641 A 262.50011 262.50011 0 0 1 116.29688 308.41602 C 119.22371 312.38928 121.28425 319.04011 120.20508 323.63477 C 105.60357 385.96502 101.82788 448.94926 106.84766 512.63672 C 106.99971 514.56492 107.09605 516.72497 106.9375 518.81055 C 107.20596 518.74441 108.08008 518.52734 108.08008 518.52734 C 108.61299 522.84296 109.18535 527.05919 109.77539 531.23047 C 131.4634 602.94939 230.71289 595.60938 230.71289 595.60938 C 230.71289 595.60938 317.14147 589.18824 280.35156 483.49023 C 279.18511 480.139 278.25855 477.11192 277.54688 474.38477 C 267.78391 452.17902 260.43139 429.27091 264.53516 403.90234 C 265.63068 396.85507 268.16528 394.84671 275.44141 395.61523 C 303.92497 398.54206 328.4547 390.92006 347.55273 368.04492 C 357.88663 355.66712 357.72008 346.39679 344.80273 336.40625 C 327.86304 323.32542 310.90937 310.24469 294.47656 296.64062 C 290.53592 293.35403 288.52303 287.73111 285.62891 283.18555 C 290.20726 280.50393 294.49116 276.77556 299.39648 275.32031 C 318.31467 269.72821 334.71514 260.34232 343.72461 242.4707 A 424.44112 424.44112 0 0 0 365.08008 190.41016 C 367.05852 184.62185 367.32078 174.8249 363.78906 171.42383 C 360.25721 168.02284 350.05291 168.02202 344.77148 170.60547 C 327.84811 178.78104 311.83934 188.93506 295.48828 198.40234 C 287.99951 202.75173 280.62653 207.29858 273.20312 211.74609 L 270.16406 208.37891 C 274.1047 203.96409 277.19234 198.14393 282.09766 195.29883 C 311.88627 177.91247 341.96967 161.01056 371.86523 143.79297 L 371.45117 143.62109 C 371.45117 143.62109 405.32001 125.51823 395.97656 82.304688 L 395.71875 77.982422 C 395.60877 77.482799 395.50975 76.966307 395.42773 76.423828 C 394.64288 71.256904 395.28005 65.778816 393.98828 60.775391 C 392.96365 56.795654 391.93182 52.823542 390.90625 48.845703 C 389.98737 47.259583 389.22948 45.106823 388.67578 42.300781 C 381.63441 6.6188519 371.45117 3.4667969 371.45117 3.4667969 C 371.45117 3.4667969 366.83921 0.16060632 363.60742 0.005859375 z M 121.54688 205.79688 L 157.97656 234.2793 C 154.01961 239.31538 150.7335 240.63774 145.95898 235.73242 C 137.11306 226.5431 127.79309 217.79686 118.68555 208.86914 L 121.54688 205.79688 z M 273.85742 282.45508 A 8.7709493 5.5486463 50.29779 0 1 280.99609 286.53125 A 8.7709493 5.5486463 50.29779 0 1 282.33008 296.82422 A 8.7709493 5.5486463 50.29779 0 1 272.45898 293.62109 A 8.7709493 5.5486463 50.29779 0 1 271.125 283.32812 A 8.7709493 5.5486463 50.29779 0 1 273.85742 282.45508 z M 208.99609 301.7207 A 13.058371 7.7644368 9.4027364 0 1 208.99805 301.7207 A 13.058371 7.7644368 9.4027364 0 1 212.49023 302.01367 A 13.058371 7.7644368 9.4027364 0 1 224.10547 311.80664 A 13.058371 7.7644368 9.4027364 0 1 209.95312 317.33398 A 13.058371 7.7644368 9.4027364 0 1 198.33789 307.53906 A 13.058371 7.7644368 9.4027364 0 1 208.99609 301.7207 z "
       transform="matrix(0.26458333,0,0,0.26458333,2.3459241,26.257302)"
       id="path4" />
  </g>
</svg>
